<svg width="210" height="143" xmlns="http://www.w3.org/2000/svg" xmlns:xlink="http://www.w3.org/1999/xlink" xml:space="preserve" overflow="hidden"><defs><clipPath id="clip0"><rect x="109" y="465" width="210" height="143"/></clipPath></defs><g clip-path="url(#clip0)" transform="translate(-109 -465)"><path d="M164.585 465.3 174.078 465.3C174.578 465.3 174.977 465.7 174.977 466.199L174.977 561.433C174.977 561.932 174.578 562.332 174.078 562.332L164.585 562.332C164.085 562.332 163.685 561.932 163.685 561.433L163.685 466.199C163.685 465.7 164.085 465.3 164.585 465.3ZM229.939 543.645 229.939 546.043C229.939 547.143 229.739 548.542 229.339 550.34 229.039 552.039 228.14 553.938 226.541 555.637 225.042 557.335 222.844 558.934 219.746 560.333 216.648 561.532 212.551 562.232 207.155 562.232 201.759 562.232 197.661 561.532 194.564 560.333 191.466 559.134 189.367 557.535 187.768 555.637 186.269 553.938 185.27 552.039 184.97 550.24 184.671 548.442 184.371 547.043 184.371 546.043L184.371 491.781C184.371 491.282 184.77 490.882 185.27 490.882L194.763 490.882C195.263 490.882 195.663 491.282 195.663 491.781L195.663 542.546C195.663 544.245 195.863 545.444 196.162 546.343 196.362 547.342 196.862 548.242 197.561 549.041 198.261 549.941 199.36 550.64 200.859 551.24 202.258 551.839 204.257 552.139 206.755 552.139 209.353 552.139 211.452 551.839 212.951 551.24 214.45 550.64 215.649 550.041 216.348 549.141 217.148 548.342 217.647 547.442 217.947 546.443 218.147 545.444 218.547 544.744 218.547 542.346L218.547 491.781C218.547 491.282 218.947 490.882 219.446 490.882L228.94 490.882C229.439 490.882 229.839 491.282 229.839 491.781L229.939 543.645ZM262.316 490.982 268.712 490.982C269.311 490.982 269.711 491.581 269.511 492.081L267.313 500.375C267.213 500.775 266.813 501.075 266.513 501.075L262.016 501.075C259.618 501.075 257.719 501.375 256.22 502.074 254.821 502.774 253.522 503.373 252.823 504.273 252.123 505.172 251.624 505.971 251.324 506.971 251.124 507.97 251.024 508.769 251.024 509.669L251.024 561.532C251.024 562.032 250.624 562.432 250.125 562.432L240.531 562.432C240.032 562.432 239.632 562.032 239.632 561.532L239.632 507.27C239.632 506.271 239.832 504.872 240.232 503.073 240.531 501.275 241.431 499.476 243.03 497.677 244.529 495.978 246.727 494.379 249.825 492.98 252.823 491.581 257.02 490.982 262.316 490.982ZM131.608 490.982C139.302 490.982 145.098 492.481 148.696 495.579 152.293 498.676 154.092 502.474 154.092 507.071L154.092 546.043C154.092 547.642 153.792 549.341 153.193 551.24 152.593 553.138 151.494 554.937 149.895 556.436 148.196 558.035 145.898 559.334 143 560.433 140.102 561.532 136.304 562.032 131.608 562.032 126.911 562.032 123.114 561.433 120.216 560.433 117.318 559.434 115.019 558.035 113.32 556.436 111.622 554.837 110.522 553.138 110.023 551.24 109.423 549.441 109.023 547.642 109.023 546.043L109.023 539.848C109.023 536.55 109.923 533.452 111.622 530.654 113.42 527.956 115.819 525.957 118.916 524.858 120.515 524.259 122.214 523.759 124.313 523.059 126.311 522.36 128.31 521.76 130.209 520.961 132.107 520.261 133.706 519.762 135.205 519.262 136.604 518.662 137.503 518.463 137.903 518.263 138.203 518.063 138.703 517.863 139.202 517.563 139.802 517.263 140.302 516.764 140.901 516.264 141.501 515.565 141.9 514.965 142.2 514.166 142.6 513.366 142.8 512.467 142.8 511.368L142.8 508.869C142.8 507.97 142.6 507.171 142.2 506.171 141.9 505.172 141.201 504.472 140.401 503.573 139.602 502.774 138.303 502.174 136.904 501.674 135.505 501.175 133.706 500.975 131.408 500.975 127.011 500.975 124.113 501.874 122.414 503.673 121.115 505.272 120.216 507.171 120.116 509.369 120.116 509.869 119.716 510.168 119.216 510.168L109.923 510.168C109.423 510.168 109.023 509.769 109.023 509.269L109.023 506.971C109.023 504.772 109.423 502.674 110.223 500.775 111.022 498.676 112.421 496.978 114.32 495.479 116.118 494.08 118.517 492.781 121.415 492.081 124.213 491.481 127.61 490.982 131.608 490.982ZM143 526.057C142.8 526.957 142.3 527.556 141.701 528.056 141.001 528.556 140.401 528.755 139.702 529.055 138.403 529.555 136.904 530.055 135.405 530.554 133.906 531.154 132.407 531.653 131.108 532.053 129.509 532.653 127.91 533.152 126.611 533.652 125.512 534.152 124.513 534.751 123.513 535.451 122.714 536.15 122.014 537.05 121.315 538.149 120.615 539.348 120.316 540.647 120.316 542.346 120.316 545.644 121.115 548.142 122.714 549.841 124.313 551.44 127.311 552.339 131.608 552.339 136.005 552.339 139.002 551.44 140.701 549.741 142.3 548.042 143.1 545.544 143.1 542.446L143 526.057ZM296.492 490.982C304.187 490.982 309.983 492.481 313.58 495.579 317.178 498.676 318.977 502.474 318.977 507.071L318.977 546.043C318.977 547.642 318.677 549.341 318.077 551.24 317.478 553.138 316.378 554.937 314.78 556.436 313.181 557.935 310.782 559.334 307.884 560.433 304.986 561.532 301.189 562.032 296.492 562.032 291.796 562.032 287.998 561.433 285.1 560.433 282.202 559.434 279.904 558.035 278.205 556.436 276.506 554.837 275.407 553.138 274.907 551.24 274.308 549.341 274.008 547.542 274.008 546.043L274.008 539.848C274.008 536.55 274.907 533.452 276.606 530.654 278.305 527.956 280.803 525.957 283.901 524.858 285.5 524.259 287.199 523.759 289.297 523.059 291.296 522.36 293.295 521.76 295.193 520.961 297.092 520.261 298.691 519.762 300.19 519.262 301.589 518.662 302.488 518.463 302.888 518.263 303.188 518.063 303.687 517.863 304.187 517.563 304.786 517.263 305.286 516.764 305.886 516.264 306.485 515.565 306.885 514.965 307.185 514.166 307.585 513.366 307.784 512.467 307.784 511.368L307.784 508.869C307.784 507.97 307.585 507.171 307.185 506.171 306.885 505.172 306.186 504.472 305.386 503.573 304.487 502.774 303.288 502.174 301.889 501.674 300.49 501.175 298.691 500.975 296.392 500.975 291.995 500.975 289.097 501.874 287.399 503.673 286.1 505.272 285.2 507.171 285.1 509.369 285.1 509.869 284.701 510.168 284.201 510.168L274.608 510.168C274.108 510.168 273.708 509.769 273.708 509.269L273.708 506.971C273.708 504.772 274.108 502.674 274.907 500.775 275.707 498.876 277.106 497.078 279.005 495.579 280.803 494.18 283.202 492.88 286.1 492.181 289.097 491.481 292.495 490.982 296.492 490.982ZM307.784 526.057C307.585 526.957 307.085 527.556 306.485 528.056 305.786 528.556 305.186 528.755 304.487 529.055 303.188 529.555 301.689 530.055 300.19 530.554 298.691 531.154 297.192 531.653 295.893 532.053 294.294 532.653 292.695 533.152 291.396 533.652 290.297 534.152 289.297 534.751 288.298 535.451 287.499 536.15 286.799 537.05 286.1 538.149 285.4 539.248 285.1 540.647 285.1 542.346 285.1 545.644 285.9 548.142 287.499 549.841 289.097 551.44 292.095 552.339 296.392 552.339 300.789 552.339 303.787 551.44 305.486 549.741 307.085 548.042 307.884 545.544 307.884 542.446L307.784 526.057ZM178.974 576.722C178.974 576.222 179.374 575.823 179.874 575.823L185.37 575.823C185.87 575.823 186.269 576.222 186.269 576.722L186.269 601.205 197.162 601.205C197.661 601.205 198.061 601.604 198.061 602.104L198.061 607.101C198.061 607.6 197.661 608 197.162 608L179.874 608C179.374 608 178.974 607.6 178.974 607.101L178.974 576.722ZM199.86 606.801 214.15 576.022C214.25 575.723 214.65 575.523 214.949 575.523L215.449 575.523C215.749 575.523 216.049 575.723 216.248 576.022L230.538 606.801C230.838 607.4 230.439 608 229.739 608L224.643 608C223.843 608 223.443 607.7 223.044 606.901L221.445 603.303 208.954 603.303 207.355 607.001C207.155 607.5 206.655 608.1 205.756 608.1L200.759 608.1C199.86 608 199.56 607.4 199.86 606.801ZM218.647 597.008 215.149 589.413 211.752 597.008 218.647 597.008ZM236.734 582.618 230.139 582.618C229.639 582.618 229.239 582.218 229.239 581.718L229.239 576.722C229.239 576.222 229.639 575.823 230.139 575.823L250.425 575.823C250.924 575.823 251.324 576.222 251.324 576.722L251.324 581.718C251.324 582.218 250.924 582.618 250.425 582.618L243.929 582.618 243.929 607.101C243.929 607.6 243.529 608 243.03 608L237.534 608C237.034 608 236.634 607.6 236.634 607.101L236.634 582.618ZM250.225 606.801 264.515 576.022C264.615 575.723 265.014 575.523 265.314 575.523L265.814 575.523C266.114 575.523 266.413 575.723 266.613 576.022L280.903 606.801C281.203 607.4 280.803 608 280.104 608L275.007 608C274.208 608 273.808 607.7 273.408 606.901L271.81 603.303 259.318 603.303 257.719 607.001C257.52 607.5 257.02 608.1 256.021 608.1L251.024 608.1C250.325 608 249.925 607.4 250.225 606.801ZM269.012 597.008 265.514 589.413 262.116 597.008 269.012 597.008ZM287.798 576.122C287.798 575.723 288.298 575.423 288.598 575.423L289.297 575.423C289.497 575.423 289.897 575.623 290.097 575.922L300.689 595.709 300.789 595.709 311.382 575.922C311.482 575.623 311.982 575.423 312.181 575.423L312.881 575.423C313.281 575.423 313.68 575.723 313.68 576.122L318.877 606.901C318.977 607.5 318.577 607.9 317.977 607.9L312.581 607.9C312.181 607.9 311.782 607.5 311.682 607.201L309.583 593.01 309.483 593.01 301.789 607.8C301.689 608.1 301.289 608.3 300.989 608.3L300.19 608.3C299.89 608.3 299.59 608.1 299.39 607.8L291.696 593.01 291.596 593.01 289.597 607.201C289.597 607.6 289.197 607.9 288.698 607.9L283.302 607.9C282.702 607.9 282.302 607.5 282.402 606.901L287.798 576.122Z" fill="#133A55"/></g></svg>